<svg xmlns="http://www.w3.org/2000/svg" width="176" height="141" viewBox="0 0 176 141" fill="none"><path d="M174.064 134.64C160.714 140.255 144.248 137.515 133.435 127.879C122.623 118.242 118.018 102.197 122.063 88.2909C124.491 79.9551 130.23 72.198 138.396 69.2581C146.561 66.3182 157.018 69.4578 160.723 77.3072C163.393 82.9718 162.187 89.9376 158.784 95.1951C155.38 100.453 150.062 104.206 144.461 107.011C128.623 114.946 108.956 115.866 93.3129 107.56C77.6693 99.254 67.1596 81.2088 69.5742 63.6635C71.9887 46.1181 87.9416 24.4476 102.97 35.8298C127.171 54.1546 89.2373 84.9265 68.4405 86.5945C47.6436 88.2625 26.293 78.2362 14.2862 61.1711C2.28416 44.1046 0.0646071 20.6224 8.66802 1.61168" stroke="#00B389" stroke-width="6" stroke-linejoin="round"></path></svg>