<svg xmlns="http://www.w3.org/2000/svg" width="170" height="154" viewBox="0 0 170 154" fill="none"><path d="M76.8304 115.49C60.6968 124.405 36.2856 111.446 38.9928 92.6367C41.3944 75.9556 66.3731 82.4583 65.6788 91.6667C64.4339 108.171 25.0473 92.2873 29.5029 65.5072C33.4331 41.8817 71.6179 48.322 63.2429 64.7431C58.8984 73.2632 33.9791 68.3269 45.2892 34.8355C56.6014 1.34279 92.2793 8.02463 100.434 35.8167C108.589 63.6087 71.2362 80.909 89.1268 102.506C110.707 128.558 155.796 78.7767 163.634 58.0411C171.474 37.3041 158.632 16.8951 148.238 22.1666C140.791 25.9417 142.188 38.3529 148.431 49.0582C148.431 49.0582 133.081 29.4275 126.13 41.1805C122.425 47.4439 132.174 55.8372 138.129 66.1371C167.249 116.493 85.9338 173.411 37.9822 140.357C-28.5962 94.4548 12.4131 0.0138391 62.0225 3.31417" stroke="#00B389" stroke-width="6" stroke-linejoin="round"></path></svg>