<svg xmlns="http://www.w3.org/2000/svg" width="303" height="160" viewBox="0 0 303 160" fill="none"><path d="M123.429 123.268C123.429 123.268 45.4214 151.744 10.5084 156.204C5.68181 154.868 -2.3237 143.908 8.84406 140.203C20.0118 136.497 119.736 122.551 219.359 62.7709C257.277 40.0176 260.124 37.7173 249.555 48.0878C238.982 58.4587 175.262 101.986 142.056 115.937C119.111 125.576 217.089 151.354 231.886 126.823C237.854 116.927 206.827 109.543 206.827 109.543C206.827 109.543 262.74 112.221 260.131 96.1279C258.377 85.3089 223.261 87.536 223.261 87.536C223.261 87.536 290.168 79.4373 288.827 58.8894C288.132 48.2351 259.817 55.1762 259.817 55.1762C259.817 55.1762 308.271 17.5465 297.734 5.48014C287.198 -6.58622 233.465 39.4337 233.465 39.4337C233.465 39.4337 252.451 6.24212 246.55 4.81655C240.648 3.39267 205.751 43.116 199.752 49.7691C199.752 49.7691 222.064 7.00258 208.571 6.89826C197.748 6.81458 151.25 52.589 159.434 65.8415C167.619 79.0922 183.763 24.8059 167.357 23.466C155.872 22.528 155.868 87.6127 63.9855 118.413" stroke="#00B389" stroke-width="6" stroke-linejoin="round"></path></svg>