<svg xmlns="http://www.w3.org/2000/svg" width="119" height="119" viewBox="0 0 119 119" fill="none"><path d="M56.0743 16.354C59.4539 13.4695 70.672 1.09929 96.1586 37.363C121.645 73.6267 105.777 81.2674 105.777 81.2674C105.777 81.2674 95.0824 90.9447 79.177 73.8684C70.4724 64.5244 80.9215 58.4187 88.1938 68.6476C95.4671 78.8738 93.2103 90.695 85.9662 95.245C78.7522 99.7759 66.9879 100.68 57.929 88.309C49.5664 76.8871 59.8331 73.0522 67.5452 83.7497C75.7469 95.1245 66.1602 107.92 52.9346 103.386C39.0509 98.6243 -2.80521 68.9678 16.3883 47.1084C31.2219 30.2119 49.3868 44.6106 51.0416 30.1053C51.4566 26.4686 51.4268 20.3211 56.0762 16.3531L56.0743 16.354Z" stroke="#00B389" stroke-width="6" stroke-linejoin="round"></path><path d="M46.1207 32.9604C46.1207 32.9604 21.3831 7.29071 16.9357 7.33253C13.8004 7.36092 12.0547 12.1128 9.31779 14.2247C8.36632 14.9591 8.40655 16.4036 9.39305 17.0885L38.6983 36.5311" stroke="#00B389" stroke-width="6" stroke-linejoin="round"></path></svg>